<svg width="54" height="34" viewBox="0 0 54 34" fill="none" xmlns="http://www.w3.org/2000/svg">
<g id="Group_8025">
<path id="Path_44090" fill-rule="evenodd" clip-rule="evenodd" d="M53.5683 32.4613C53.5683 32.4613 35.9171 35.0491 21.6327 29.9885C21.2334 29.8446 21.0148 29.4147 21.134 29.0073C21.3665 28.1935 21.7677 26.7694 22.1582 25.0767C23.0696 21.1275 53.5683 32.4613 53.5683 32.4613Z" fill="#A9CBD3"/>
<path id="Path_44091" fill-rule="evenodd" clip-rule="evenodd" d="M22.1584 25.0753C21.9166 26.1216 21.6725 27.0668 21.4609 27.8271C35.7245 33.4841 53.5639 32.4599 53.5639 32.4599C53.5639 32.4599 23.0711 21.1273 22.1584 25.0753Z" fill="#8CB8BF"/>
<path id="Path_44092" fill-rule="evenodd" clip-rule="evenodd" d="M25.0651 8.44532C25.0651 8.44532 25.201 16.1287 23.1015 20.0802C21.0021 24.0318 46.3725 32.8603 53.57 32.4592C53.57 32.4592 43.6882 24.1353 38.2742 17.4773C34.7568 13.3409 30.1957 10.2222 25.0651 8.44531V8.44532Z" fill="#CCE4EA"/>
<path id="Path_44093" opacity="0.5" fill-rule="evenodd" clip-rule="evenodd" d="M23.0976 20.0802C20.998 24.0329 46.3686 32.8602 53.5661 32.4591C42.0683 28.7738 26.3202 15.6939 26.3202 15.6939C26.233 13.2316 25.8093 10.7928 25.0612 8.44531C25.0612 8.44529 25.2008 16.1287 23.0976 20.0802Z" fill="#A9CBD3"/>
<path id="Path_44094" fill-rule="evenodd" clip-rule="evenodd" d="M17.3257 10.5639C16.591 10.6965 13.1719 11.2615 9.55858 11.58C4.13065 12.0543 -0.555648 11.1266 0.0534485 12.581C0.596412 13.8795 9.07721 22.2035 21.2493 26.7735C33.4215 31.3435 48.6289 32.8526 53.5686 32.4596C46.5664 29.8738 39.8215 26.6378 33.4227 22.794C23.3478 16.6546 19.4334 10.1826 17.3257 10.5639Z" fill="#F7FCFE"/>
<path id="Path_44095" fill-rule="evenodd" clip-rule="evenodd" d="M53.5697 32.4598C49.4847 28.1449 45.9553 23.336 43.0636 18.1452C38.0007 8.37963 36.7998 0.877625 36.2638 0.162643C35.7278 -0.552339 33.4736 1.16012 29.8697 3.92237C28.1432 5.29255 26.535 6.80574 25.0625 8.4459C25.0625 8.4459 42.1684 28.5198 53.5697 32.4598Z" fill="#F7FCFE"/>
</g>
</svg>
