<svg width="28" height="28" viewBox="0 0 28 28" fill="none" xmlns="http://www.w3.org/2000/svg">
<g id="streamlinehq-interface-favorite-star-5-          flat-48-ico_Q2Z62USep8rmqJps" clip-path="url(#clip0_1040_5551)">
<path id="Vector" fill-rule="evenodd" clip-rule="evenodd" d="M17.1478 4.30785C17.6301 2.84139 19.7046 2.8414 20.1869 4.30785L21.6319 8.70178L26.0258 10.1468C27.4923 10.6291 27.4923 12.7036 26.0258 13.1859L21.6319 14.6309L20.1869 19.0249C19.7046 20.4913 17.6301 20.4913 17.1478 19.0249L15.7028 14.6309L11.3088 13.1859C9.84237 12.7036 9.84237 10.6291 11.3088 10.1468L15.7028 8.70178L17.1478 4.30785Z" fill="#FFCC9B"/>
<path id="Vector_2" d="M10.73 14.7189C10.2867 13.371 8.37993 13.371 7.93666 14.7189L6.87225 17.9553L3.63594 19.0197C2.28802 19.463 2.28802 21.3698 3.63594 21.813L6.87225 22.8774L7.93666 26.1138C8.37993 27.4617 10.2867 27.4617 10.73 26.1138L11.7944 22.8774L15.0307 21.813C16.3787 21.3698 16.3787 19.463 15.0307 19.0197L11.7944 17.9553L10.73 14.7189Z" fill="#FFB167"/>
<path id="Vector_3" d="M8.34015 1.84501C7.91478 0.551664 6.08522 0.551661 5.65985 1.84501L4.71573 4.71573L1.84501 5.65985C0.551664 6.08522 0.551661 7.91478 1.84501 8.34015L4.71573 9.28427L5.65985 12.155C6.08522 13.4483 7.91478 13.4483 8.34015 12.155L9.28427 9.28427L12.155 8.34015C13.4483 7.91478 13.4483 6.08522 12.155 5.65985L9.28427 4.71573L8.34015 1.84501Z" fill="#FFB167"/>
</g>
<defs>
<clipPath id="clip0_1040_5551">
<rect width="28" height="28" fill="white"/>
</clipPath>
</defs>
</svg>
